PathFileType	4	(X/Y/Z)	C:/Users/opensim2020/Desktop/walking_exp_matlab/subject06_walking14_straight_03.trc																																																																																																																																					
DataRate	CameraRate	NumFrames	NumMarkers	Units	OrigDataRate	OrigDataStartFrame	OrigNumFrames																																																																																																																																	
100	100	4	45	mm	100	2324	233																																																																																																																																	
Frame#	Time	LFHD			RFHD			LBHD			RBHD			C7			T10			CLAV			STRN			RBAK			LSHO			LUPA			LELB			LFRM			LWRA			LWRB			LFIN			RSHO			RUPA			RELB			RFRM			RWRA			RWRB			RFIN			LASI			RASI			LPSI			RPSI			LTHI			LKNE			LTIB			LANK			LHEE			LTOE			RTHI			RKNE			RTIB			RANK			RHEE			RTOE			*39			*40			*41			*42			*43			*44		
		X1	Y1	Z1	X2	Y2	Z2	X3	Y3	Z3	X4	Y4	Z4	X5	Y5	Z5	X6	Y6	Z6	X7	Y7	Z7	X8	Y8	Z8	X9	Y9	Z9	X10	Y10	Z10	X11	Y11	Z11	X12	Y12	Z12	X13	Y13	Z13	X14	Y14	Z14	X15	Y15	Z15	X16	Y16	Z16	X17	Y17	Z17	X18	Y18	Z18	X19	Y19	Z19	X20	Y20	Z20	X21	Y21	Z21	X22	Y22	Z22	X23	Y23	Z23	X24	Y24	Z24	X25	Y25	Z25	X26	Y26	Z26	X27	Y27	Z27	X28	Y28	Z28	X29	Y29	Z29	X30	Y30	Z30	X31	Y31	Z31	X32	Y32	Z32	X33	Y33	Z33	X34	Y34	Z34	X35	Y35	Z35	X36	Y36	Z36	X37	Y37	Z37	X38	Y38	Z38	X39	Y39	Z39	X40	Y40	Z40	X41	Y41	Z41	X42	Y42	Z42	X43	Y43	Z43	X44	Y44	Z44	X45	Y45	Z45
																																																																																																																																								
117	1.16	209.94843	1661.23169	1353.92627	212.00719	1655.90894	1486.03333	77.37708	1604.91455	1358.27502	80.38569	1605.27539	1488.14465	81.31873	1447.37903	1418.43689	55.81803	1119.41089	1436.2312	194.24481	1375.39001	1423.4397	241.37662	1201.64636	1425.4696	12.80136	1279.12708	1505.78723	140.07123	1400.32874	1259.25684	115.702	1198.42993	1193.26563	93.04266	1088.07056	1188.90881	92.72633	936.98602	1172.29272	129.07191	814.67035	1221.66675	73.46584	819.76239	1177.26929	96.66421	731.53876	1184.1991	143.46675	1411.42334	1580.63843	128.56833	1216.16577	1678.79114	156.00897	1097.88806	1697.29626	205.31268	988.73456	1715.62964	302.96777	875.14777	1680.40051	254.69539	860.41138	1723.4563	314.60532	801.71631	1725.51221	249.00266	968.05621	1335.66272	227.48634	964.75952	1554.53894	86.82418	990.01654	1352.755	78.15253	985.75031	1519.7959	221.15689	655.32318	1268.43201	247.88164	494.98886	1295.28625	236.87253	237.30283	1307.94214	249.85489	67.64697	1355.01843	210.0553	53.56865	1401.50623	395.62097	41.32733	1360.68518	163.2437	622.24097	1610.71667	166.55873	494.66592	1600.57153	-32.52592	327.6665	1580.75366	-177.06461	217.61797	1528.21155	-206.92625	238.13707	1477.82751	-146.42934	60.32954	1533.04541	109.86656	1701.20508	1413.08765	NaN	NaN	NaN	NaN	NaN	NaN	NaN	NaN	NaN	NaN	NaN	NaN	NaN	NaN	NaN
118	1.17	221.36385	1662.62512	1353.05115	223.29999	1657.38892	1485.20398	88.78934	1606.43811	1357.33545	91.54488	1606.79211	1487.30127	92.64049	1448.97791	1417.29944	66.8912	1120.85669	1434.48181	205.38838	1376.77698	1422.65112	252.43283	1202.99463	1424.58044	23.50695	1280.67126	1503.99927	151.91685	1402.1366	1258.51318	130.22672	1200.21484	1191.40271	109.53797	1089.42969	1186.35437	112.8169	938.42725	1169.39478	152.06259	816.91449	1218.70105	96.39021	820.74091	1174.25989	122.03867	733.24829	1180.72656	154.0022	1412.54285	1579.71899	136.88582	1217.26807	1677.67664	162.34154	1098.21545	1695.38892	208.89157	987.68658	1713.7395	303.48389	871.28461	1678.91614	254.49905	857.99078	1721.81482	311.65762	796.82086	1723.25146	259.59467	968.737	1334.72961	237.72786	966.18683	1553.90063	97.81545	991.17822	1351.23987	89.30971	986.58502	1518.26892	228.4021	655.90314	1267.93274	252.75992	495.06943	1294.40161	238.23643	237.53381	1307.33301	249.96143	67.71632	1355.0437	210.58244	53.27154	1401.10095	395.72601	41.12073	1360.77014	180.03691	623.12518	1610.23743	187.33099	495.76962	1600.10193	-10.12939	329.98489	1581.03003	-157.51125	223.71338	1527.72949	-186.96045	244.8205	1476.7821	-131.42137	65.40116	1534.09985	121.29589	1702.73181	1412.13586	NaN	NaN	NaN	NaN	NaN	NaN	NaN	NaN	NaN	NaN	NaN	NaN	NaN	NaN	NaN
119	1.18	232.73882	1663.94177	1352.2749	234.51752	1658.69275	1484.42664	100.08305	1607.81311	1356.45044	102.76575	1608.13757	1486.40637	103.94366	1450.34009	1416.23669	77.76075	1122.18164	1432.72046	216.53568	1378.10229	1421.98157	263.41696	1204.11731	1423.69763	34.03746	1281.98059	1501.89014	163.7516	1403.74146	1257.66711	144.70924	1201.75549	1189.57532	126.20594	1090.57007	1183.82397	133.2966	939.71021	1166.52844	175.37595	819.27997	1215.55811	119.58247	821.58026	1171.34827	147.84798	734.99371	1177.23193	164.33867	1413.44995	1578.94519	144.82762	1217.98572	1676.39111	168.84187	1098.28149	1693.6394	212.22444	986.42816	1711.91321	303.58789	867.0412	1677.33423	254.177	855.51971	1720.22583	309.24896	792.28821	1721.35632	270.11127	969.24542	1333.90088	248.29198	967.57361	1553.61877	108.37147	992.31561	1349.76563	99.29723	987.59863	1516.84558	235.53099	656.33813	1267.26868	257.52606	495.06815	1293.48914	240.06203	237.73158	1306.64734	250.08287	67.71835	1354.97815	210.23416	53.63871	1401.01794	395.8327	40.93797	1360.88379	196.42221	624.15149	1609.7511	207.73662	497.17072	1599.73572	11.71233	331.73645	1581.25513	-138.16977	229.23599	1526.74707	-167.96786	249.49197	1475.8374	-111.07429	71.24842	1535.58118	132.61072	1704.07129	1411.28235	NaN	NaN	NaN	NaN	NaN	NaN	NaN	NaN	NaN	NaN	NaN	NaN	NaN	NaN	NaN
120	1.19	244.07727	1665.13281	1351.58826	245.67232	1659.81018	1483.76904	111.4045	1608.95764	1355.56909	113.97878	1609.31665	1485.47144	115.14295	1451.58911	1415.17529	88.4113	1123.21814	1431.01184	227.62106	1379.19641	1421.4353	274.26166	1205.11401	1422.95776	44.52507	1282.91272	1499.49414	175.60522	1405.13281	1256.86133	159.20329	1202.95557	1187.76477	142.83264	1091.40906	1181.37109	153.7654	940.85242	1163.72986	198.72505	821.50214	1212.75195	142.99345	822.26782	1168.51538	174.04379	736.78595	1173.8634	174.60197	1414.10327	1578.33301	152.43755	1218.32593	1674.93665	175.17584	1098.14514	1691.87891	215.42368	985.10394	1710.07947	303.55167	863.07861	1675.83411	253.81248	853.14746	1718.72729	306.75717	787.823	1719.58582	280.37286	969.70764	1333.0199	258.07574	968.32367	1552.64172	118.78601	993.31647	1348.5459	109.3555	988.52637	1515.59985	242.35664	656.72467	1267.00073	261.97998	495.0759	1292.59607	242.26817	238.01991	1305.80237	250.30113	67.82504	1354.61121	210.41052	53.56837	1400.50403	395.98984	40.66299	1360.82117	212.57898	625.38788	1609.25696	227.65868	498.91736	1599.44824	32.55294	333.68484	1581.09729	-118.02528	233.42471	1525.88843	-149.0295	252.20909	1475.25171	-86.72819	76.46995	1536.90735	143.82858	1705.22449	1410.50256	NaN	NaN	NaN	NaN	NaN	NaN	NaN	NaN	NaN	NaN	NaN	NaN	NaN	NaN	NaN
